<mxfile host="app.diagrams.net" modified="2023-12-26T14:14:11.691Z" agent="Mozilla/5.0 (Macintosh; Intel Mac OS X 10_15_7) AppleWebKit/537.36 (KHTML, like Gecko) Chrome/120.0.0.0 Safari/537.36" version="22.1.11" etag="bibgS6slDHbCG5Kw1M0b" type="github">
  <diagram name="Page-1" id="_rNO2T0T2BEtqXHNIDhr">
    <mxGraphModel>
      <root>
        <mxCell id="0" />
        <mxCell id="1" parent="0" />
      </root>
    </mxGraphModel>
  </diagram>
</mxfile>
